# xmcd
# 
# Track frame offsets:
#     150
#     16988
#     26257
#     37472
#     47380
#     62310
#     71766
#     84898
#     97423
#     107429
#     117834
#     129591
#     141007
#     151158
#     161140
#     174588
# 
# Disc length: 2460
# 
# Revision: 1
# Processed by: cddbd v1.5.2PL0 Copyright (c) Steve Scherf et al.
# Submitted via: fre:ac v1.0.31
# 
DISCID=cc099a10
DTITLE=Various Artist - Ultimate Country [ CD 3 ]
DYEAR=2005
DGENRE=Country
TTITLE0=Ferlin Husky - Giddyup Go
TTITLE1=Charlie Rich - Lonely Weekends
TTITLE2=Razzy Bailey - 9,999,999 Tears
TTITLE3=Johnny Cash - Hey Porter
TTITLE4=Kenny Rogers - For the Good Times
TTITLE5=Frankie Laine - Blazing Saddles
TTITLE6=Freddy Fender - Something on Your Mind
TTITLE7=Gene Autry - Take me Back in Your Arms
TTITLE8=Hank Locklin - We're Gonna Go Fishing
TTITLE9=Jim Reeves - Just Call Me Lonesome
TTITLE10=Barbara Fairchild - You Can't Put the City in a Country Girl
TTITLE11=Donna Fargo - Superman
TTITLE12=Porter Wagoner - The Green Green Grass of Home
TTITLE13=Don Gibson - Lonesome Number One
TTITLE14=Roy Rogers - Saddle Serenade
TTITLE15=Willie Nelson - Pride Wins Again
EXTD=YEAR: 2005
EXTT0=
EXTT1=
EXTT2=
EXTT3=
EXTT4=
EXTT5=
EXTT6=
EXTT7=
EXTT8=
EXTT9=
EXTT10=
EXTT11=
EXTT12=
EXTT13=
EXTT14=
EXTT15=
PLAYORDER=
